<svg width="323" height="55" viewBox="225 205 323 55" fill="none" xmlns="http://www.w3.org/2000/svg">
<mask id="mask0_2_2" style="mask-type:luminance" maskUnits="userSpaceOnUse" x="510" y="205" width="38" height="41">
<path d="M529.987 245.757C525.998 245.757 522.564 244.95 519.686 243.334C516.825 241.701 514.62 239.395 513.072 236.416C511.523 233.42 510.749 229.877 510.749 225.787C510.749 221.798 511.523 218.298 513.072 215.285C514.62 212.272 516.8 209.924 519.61 208.241C522.438 206.558 525.754 205.716 529.558 205.716C532.116 205.716 534.497 206.129 536.702 206.953C538.924 207.761 540.86 208.982 542.509 210.614C544.175 212.247 545.471 214.3 546.397 216.774C547.323 219.232 547.786 222.11 547.786 225.409V228.363H515.041V221.697H537.662C537.662 220.149 537.325 218.777 536.652 217.582C535.979 216.387 535.044 215.453 533.849 214.78C532.671 214.09 531.3 213.745 529.734 213.745C528.102 213.745 526.654 214.123 525.392 214.881C524.146 215.621 523.17 216.623 522.463 217.885C521.756 219.131 521.395 220.519 521.378 222.051V228.388C521.378 230.307 521.731 231.964 522.438 233.361C523.162 234.758 524.18 235.836 525.493 236.593C526.806 237.35 528.363 237.729 530.163 237.729C531.358 237.729 532.452 237.561 533.445 237.224C534.439 236.887 535.289 236.383 535.995 235.709C536.702 235.036 537.241 234.211 537.611 233.235L547.558 233.892C547.053 236.282 546.018 238.369 544.453 240.153C542.905 241.92 540.902 243.3 538.444 244.293C536.004 245.269 533.185 245.757 529.987 245.757Z" fill="white"/>
</mask>
<g mask="url(#mask0_2_2)">
<rect x="510" y="205" width="38" height="41" fill="url(#paint0_linear_2_2)"/>
</g>
<mask id="mask1_2_2" style="mask-type:luminance" maskUnits="userSpaceOnUse" x="225" y="205" width="38" height="41">
<path d="M244.964 245.757C240.975 245.757 237.542 244.95 234.664 243.334C231.803 241.701 229.598 239.395 228.049 236.416C226.501 233.42 225.727 229.877 225.727 225.787C225.727 221.798 226.501 218.298 228.049 215.285C229.598 212.272 231.777 209.924 234.588 208.241C237.416 206.558 240.731 205.716 244.535 205.716C247.094 205.716 249.475 206.129 251.68 206.953C253.902 207.761 255.837 208.982 257.487 210.614C259.153 212.247 260.449 214.3 261.375 216.774C262.3 219.232 262.763 222.11 262.763 225.409V228.363H230.018V221.697H252.639C252.639 220.149 252.303 218.777 251.63 217.582C250.956 216.387 250.022 215.453 248.827 214.78C247.649 214.09 246.277 213.745 244.712 213.745C243.079 213.745 241.632 214.123 240.37 214.881C239.124 215.621 238.148 216.623 237.441 217.885C236.734 219.131 236.372 220.519 236.355 222.051V228.388C236.355 230.307 236.709 231.964 237.416 233.361C238.139 234.758 239.158 235.836 240.471 236.593C241.783 237.35 243.34 237.729 245.141 237.729C246.336 237.729 247.43 237.561 248.423 237.224C249.416 236.887 250.266 236.383 250.973 235.709C251.68 235.036 252.219 234.211 252.589 233.235L262.536 233.892C262.031 236.282 260.996 238.369 259.431 240.153C257.882 241.92 255.879 243.3 253.422 244.293C250.982 245.269 248.162 245.757 244.964 245.757Z" fill="white"/>
</mask>
<g mask="url(#mask1_2_2)">
<rect x="225" y="205" width="38" height="41" fill="url(#paint1_linear_2_2)"/>
</g>
<mask id="mask2_2_2" style="mask-type:luminance" maskUnits="userSpaceOnUse" x="485" y="205" width="24" height="40">
<path d="M485.029 245V206.221H495.456V212.987H495.86C496.567 210.58 497.753 208.763 499.419 207.534C501.086 206.289 503.004 205.666 505.176 205.666C505.714 205.666 506.295 205.699 506.918 205.767C507.54 205.834 508.087 205.927 508.559 206.045V215.588C508.054 215.436 507.355 215.302 506.463 215.184C505.571 215.066 504.755 215.007 504.014 215.007C502.432 215.007 501.018 215.352 499.773 216.042C498.544 216.715 497.568 217.658 496.844 218.87C496.137 220.082 495.784 221.479 495.784 223.061V245H485.029Z" fill="white"/>
</mask>
<g mask="url(#mask2_2_2)">
<rect x="485" y="205" width="24" height="40" fill="url(#paint2_linear_2_2)"/>
</g>
<mask id="mask3_2_2" style="mask-type:luminance" maskUnits="userSpaceOnUse" x="440" y="206" width="37" height="40">
<path d="M465.671 228.489V206.221H476.426V245H466.1V237.956H465.696C464.821 240.228 463.365 242.055 461.329 243.435C459.309 244.815 456.843 245.505 453.931 245.505C451.339 245.505 449.059 244.916 447.09 243.738C445.12 242.559 443.58 240.885 442.469 238.714C441.375 236.542 440.82 233.942 440.803 230.912V206.221H451.558V228.994C451.575 231.283 452.189 233.092 453.401 234.422C454.613 235.751 456.237 236.416 458.274 236.416C459.57 236.416 460.782 236.122 461.909 235.533C463.037 234.927 463.946 234.035 464.636 232.856C465.343 231.678 465.688 230.222 465.671 228.489Z" fill="white"/>
</mask>
<g mask="url(#mask3_2_2)">
<rect x="440" y="206" width="37" height="40" fill="url(#paint3_linear_2_2)"/>
</g>
<mask id="mask4_2_2" style="mask-type:luminance" maskUnits="userSpaceOnUse" x="399" y="205" width="36" height="41">
<path d="M433.147 217.279L423.301 217.885C423.133 217.044 422.771 216.286 422.215 215.613C421.66 214.923 420.928 214.376 420.019 213.972C419.127 213.551 418.058 213.341 416.813 213.341C415.146 213.341 413.741 213.694 412.596 214.401C411.452 215.091 410.88 216.017 410.88 217.178C410.88 218.104 411.25 218.887 411.991 219.526C412.731 220.166 414.002 220.679 415.803 221.066L422.821 222.48C426.592 223.254 429.402 224.5 431.254 226.217C433.105 227.933 434.031 230.189 434.031 232.983C434.031 235.524 433.282 237.754 431.784 239.673C430.303 241.592 428.266 243.09 425.674 244.167C423.099 245.227 420.128 245.757 416.762 245.757C411.629 245.757 407.539 244.689 404.492 242.551C401.463 240.397 399.687 237.468 399.165 233.765L409.744 233.21C410.063 234.775 410.838 235.97 412.066 236.795C413.295 237.603 414.869 238.007 416.787 238.007C418.672 238.007 420.187 237.645 421.332 236.921C422.493 236.181 423.082 235.23 423.099 234.068C423.082 233.092 422.67 232.293 421.862 231.67C421.054 231.03 419.809 230.542 418.125 230.206L411.41 228.867C407.623 228.11 404.804 226.797 402.952 224.929C401.118 223.061 400.2 220.679 400.2 217.784C400.2 215.293 400.874 213.147 402.22 211.346C403.583 209.545 405.494 208.157 407.951 207.181C410.425 206.204 413.32 205.716 416.636 205.716C421.534 205.716 425.388 206.751 428.199 208.822C431.027 210.892 432.676 213.711 433.147 217.279Z" fill="white"/>
</mask>
<g mask="url(#mask4_2_2)">
<rect x="399" y="205" width="36" height="41" fill="url(#paint4_linear_2_2)"/>
</g>
<mask id="mask5_2_2" style="mask-type:luminance" maskUnits="userSpaceOnUse" x="355" y="205" width="39" height="41">
<path d="M374.802 245.757C370.881 245.757 367.489 244.924 364.628 243.258C361.784 241.575 359.587 239.235 358.039 236.239C356.49 233.227 355.716 229.734 355.716 225.762C355.716 221.756 356.49 218.255 358.039 215.26C359.587 212.247 361.784 209.907 364.628 208.241C367.489 206.558 370.881 205.716 374.802 205.716C378.724 205.716 382.107 206.558 384.952 208.241C387.813 209.907 390.018 212.247 391.566 215.26C393.115 218.255 393.889 221.756 393.889 225.762C393.889 229.734 393.115 233.227 391.566 236.239C390.018 239.235 387.813 241.575 384.952 243.258C382.107 244.924 378.724 245.757 374.802 245.757ZM374.853 237.426C376.637 237.426 378.127 236.921 379.322 235.911C380.517 234.885 381.417 233.488 382.023 231.72C382.646 229.953 382.957 227.942 382.957 225.686C382.957 223.431 382.646 221.42 382.023 219.652C381.417 217.885 380.517 216.488 379.322 215.462C378.127 214.435 376.637 213.921 374.853 213.921C373.052 213.921 371.537 214.435 370.308 215.462C369.097 216.488 368.179 217.885 367.557 219.652C366.951 221.42 366.648 223.431 366.648 225.686C366.648 227.942 366.951 229.953 367.557 231.72C368.179 233.488 369.097 234.885 370.308 235.911C371.537 236.921 373.052 237.426 374.853 237.426Z" fill="white"/>
</mask>
<g mask="url(#mask5_2_2)">
<rect x="355" y="205" width="39" height="41" fill="url(#paint5_linear_2_2)"/>
</g>
<mask id="mask6_2_2" style="mask-type:luminance" maskUnits="userSpaceOnUse" x="312" y="205" width="39" height="55">
<path d="M312.292 259.542V206.221H322.895V212.735H323.375C323.846 211.691 324.528 210.631 325.42 209.554C326.329 208.46 327.507 207.551 328.955 206.827C330.419 206.087 332.237 205.716 334.408 205.716C337.235 205.716 339.844 206.457 342.234 207.938C344.624 209.402 346.535 211.616 347.965 214.578C349.396 217.523 350.111 221.218 350.111 225.661C350.111 229.987 349.413 233.639 348.016 236.618C346.636 239.58 344.751 241.827 342.361 243.359C339.987 244.874 337.328 245.631 334.383 245.631C332.296 245.631 330.52 245.286 329.056 244.596C327.608 243.906 326.422 243.039 325.496 241.996C324.57 240.935 323.863 239.867 323.375 238.789H323.047V259.542H312.292ZM322.82 225.611C322.82 227.917 323.139 229.928 323.779 231.645C324.419 233.361 325.344 234.699 326.556 235.659C327.768 236.601 329.241 237.073 330.974 237.073C332.725 237.073 334.206 236.593 335.418 235.634C336.63 234.657 337.547 233.311 338.17 231.594C338.809 229.861 339.129 227.866 339.129 225.611C339.129 223.372 338.818 221.403 338.195 219.703C337.572 218.003 336.655 216.673 335.443 215.714C334.231 214.755 332.742 214.275 330.974 214.275C329.224 214.275 327.743 214.738 326.531 215.664C325.336 216.589 324.419 217.902 323.779 219.602C323.139 221.302 322.82 223.305 322.82 225.611Z" fill="white"/>
</mask>
<g mask="url(#mask6_2_2)">
<rect x="312" y="205" width="39" height="55" fill="url(#paint6_linear_2_2)"/>
</g>
<mask id="mask7_2_2" style="mask-type:luminance" maskUnits="userSpaceOnUse" x="266" y="205" width="40" height="41">
<path d="M305.267 242.47C306.202 243.72 304.206 245.717 302.955 244.781C289.385 234.634 282.586 234.634 269.016 244.781C267.766 245.717 265.769 243.72 266.704 242.47C276.852 228.9 276.852 222.1 266.704 208.53C265.769 207.28 267.766 205.283 269.016 206.219C282.586 216.366 289.385 216.366 302.955 206.219C304.206 205.283 306.202 207.28 305.267 208.53C295.12 222.1 295.12 228.9 305.267 242.47Z" fill="white"/>
</mask>
<g mask="url(#mask7_2_2)">
<rect x="265" y="205" width="42" height="41" fill="url(#paint7_linear_2_2)"/>
</g>
<defs>
<linearGradient id="paint0_linear_2_2" x1="529" y1="205" x2="529" y2="246" gradientUnits="userSpaceOnUse">
<stop stop-color="#3D3D3D"/>
<stop offset="0.7" stop-color="#888888"/>
<stop offset="1" stop-color="#FBFBFB"/>
</linearGradient>
<linearGradient id="paint1_linear_2_2" x1="244" y1="205" x2="244" y2="246" gradientUnits="userSpaceOnUse">
<stop stop-color="#3D3D3D"/>
<stop offset="0.7" stop-color="#888888"/>
<stop offset="1" stop-color="#FBFBFB"/>
</linearGradient>
<linearGradient id="paint2_linear_2_2" x1="497" y1="205" x2="497" y2="245" gradientUnits="userSpaceOnUse">
<stop stop-color="#3D3D3D"/>
<stop offset="0.7" stop-color="#888888"/>
<stop offset="1" stop-color="#FBFBFB"/>
</linearGradient>
<linearGradient id="paint3_linear_2_2" x1="458.5" y1="206" x2="458.5" y2="246" gradientUnits="userSpaceOnUse">
<stop stop-color="#3D3D3D"/>
<stop offset="0.7" stop-color="#888888"/>
<stop offset="1" stop-color="#FBFBFB"/>
</linearGradient>
<linearGradient id="paint4_linear_2_2" x1="417" y1="205" x2="417" y2="246" gradientUnits="userSpaceOnUse">
<stop stop-color="#3D3D3D"/>
<stop offset="0.7" stop-color="#888888"/>
<stop offset="1" stop-color="#FBFBFB"/>
</linearGradient>
<linearGradient id="paint5_linear_2_2" x1="374.5" y1="205" x2="374.5" y2="246" gradientUnits="userSpaceOnUse">
<stop stop-color="#3D3D3D"/>
<stop offset="0.7" stop-color="#888888"/>
<stop offset="1" stop-color="#FBFBFB"/>
</linearGradient>
<linearGradient id="paint6_linear_2_2" x1="331.5" y1="205" x2="331.5" y2="260" gradientUnits="userSpaceOnUse">
<stop stop-color="#3D3D3D"/>
<stop offset="0.7" stop-color="#888888"/>
<stop offset="1" stop-color="#FBFBFB"/>
</linearGradient>
<linearGradient id="paint7_linear_2_2" x1="286" y1="205" x2="286" y2="246" gradientUnits="userSpaceOnUse">
<stop stop-color="#3D3D3D"/>
<stop offset="0.7" stop-color="#888888"/>
<stop offset="1" stop-color="#FBFBFB"/>
</linearGradient>
</defs>
</svg>
